<svg width="182" height="65" viewBox="0 0 182 65" fill="none" xmlns="http://www.w3.org/2000/svg">
<path d="M87.153 9.4341C88.2865 9.39693 89.4166 9.58049 90.4818 9.97481C91.2967 10.3082 92.0725 10.7325 92.7946 11.2399C93.2052 11.5207 93.5165 11.5519 93.732 11.337C93.9476 11.1221 94.0947 10.6195 94.1768 9.8223H94.8816C94.8405 10.5641 94.8097 11.4676 94.7892 12.5328C94.7687 13.5981 94.7618 15.0111 94.7687 16.7719H94.0639C93.9963 15.9693 93.8624 15.174 93.6636 14.3941C93.4968 13.7338 93.2165 13.1085 92.8357 12.5467C92.4139 11.9608 91.8694 11.4767 91.2414 11.129C90.8116 10.8695 90.352 10.6647 89.8729 10.519C89.3916 10.3703 88.8911 10.2955 88.388 10.2972C87.3575 10.2549 86.3425 10.5623 85.5039 11.1706C84.737 11.769 84.1311 12.5534 83.742 13.4513C83.3111 14.4241 83.0163 15.4531 82.8661 16.5084C82.5423 18.6368 82.5423 20.8028 82.8661 22.9311C83.0135 23.9885 83.306 25.0198 83.7351 25.9952C84.1233 26.8927 84.7295 27.6762 85.4971 28.2724C86.3345 28.8834 87.35 29.1922 88.3812 29.1493C88.8852 29.1497 89.3862 29.0702 89.866 28.9136C90.3404 28.7596 90.7988 28.5588 91.2345 28.314C92.1737 27.8255 92.9039 27.0056 93.2873 26.009C93.6962 24.8052 93.9492 23.5528 94.0399 22.283H94.7687C94.7687 24.0992 94.7789 25.5677 94.7995 26.6884C94.82 27.8091 94.8508 28.7496 94.8918 29.5098H94.187C94.1049 28.7161 93.9647 28.2135 93.7731 28.009C93.5815 27.8045 93.2565 27.8322 92.8049 28.0922C92.0421 28.5796 91.2411 29.0027 90.41 29.3573C89.3665 29.7535 88.2564 29.9383 87.1427 29.9015C85.05 29.9477 82.972 29.5375 81.0495 28.6988C79.3951 27.9687 77.9881 26.7637 77.0021 25.2326C76.0072 23.608 75.5063 21.7227 75.5618 19.8116C75.5209 17.887 76.0384 15.9925 77.05 14.3629C78.0615 12.7898 79.4822 11.5303 81.1555 10.7235C83.0323 9.82211 85.0901 9.37477 87.1666 9.41677" fill="white"/>
<path d="M105.275 14.6885C107.075 14.6885 108.491 15.1657 109.524 16.12C110.558 17.0744 111.073 18.6722 111.071 20.9137H101.491L101.43 20.3868H106.613C106.637 19.546 106.596 18.7047 106.49 17.8704C106.423 17.232 106.257 16.6084 105.997 16.023C105.929 15.8283 105.806 15.6584 105.643 15.5349C105.479 15.4115 105.284 15.34 105.08 15.3297C104.526 15.3297 104.078 15.7249 103.729 16.5117C103.38 17.2985 103.157 18.6468 103.044 20.5566L103.168 20.7785C103.147 20.9626 103.137 21.1478 103.137 21.3331V21.9188C103.137 23.2152 103.315 24.2273 103.674 24.9482C103.953 25.5841 104.43 26.11 105.032 26.4456C105.539 26.7151 106.102 26.8588 106.674 26.865C107.236 26.8379 107.793 26.7389 108.33 26.5703C109.015 26.3762 109.699 25.8529 110.383 25.0002L110.907 25.1666C110.627 25.965 110.223 26.7127 109.709 27.3814C109.103 28.1986 108.311 28.8545 107.4 29.2928C106.488 29.7311 105.486 29.9387 104.478 29.8978C103.25 29.9136 102.033 29.6667 100.906 29.1734C99.819 28.6796 98.9205 27.8399 98.3471 26.7818C97.7153 25.6726 97.3983 24.181 97.396 22.307C97.396 20.5301 97.7438 19.0801 98.4395 17.9571C99.1093 16.8564 100.097 15.9912 101.269 15.4788C102.534 14.9379 103.896 14.6688 105.268 14.6885" fill="white"/>
<path d="M124.318 14.69C125.072 14.6616 125.825 14.7696 126.542 15.0089C127.011 15.1725 127.436 15.4442 127.783 15.8026C128.119 16.182 128.354 16.641 128.468 17.137C128.627 17.8755 128.699 18.6308 128.68 19.3866V26.9184C128.68 27.6983 128.81 28.2251 129.063 28.5059C129.316 28.7867 129.747 28.9218 130.397 28.9218V29.5041L128.543 29.4348C127.715 29.4071 126.904 29.3932 126.104 29.3932C125.246 29.3932 124.409 29.4071 123.592 29.4348L121.752 29.5041V28.9218C121.955 28.9456 122.16 28.9203 122.352 28.848C122.543 28.7757 122.715 28.6585 122.853 28.5059C123.059 28.2251 123.161 27.6983 123.161 26.9184V17.8857C123.171 17.5542 123.119 17.2237 123.007 16.9118C122.919 16.6684 122.751 16.4629 122.532 16.3294C122.263 16.1876 121.962 16.1206 121.659 16.1353C121.1 16.1297 120.556 16.3263 120.127 16.6899C119.909 16.8596 119.733 17.0788 119.614 17.3299C119.495 17.581 119.437 17.8569 119.442 18.1353V26.9184C119.442 27.6983 119.552 28.2251 119.767 28.5059C119.904 28.6562 120.074 28.7721 120.263 28.8443C120.452 28.9166 120.655 28.9431 120.855 28.9218V29.5041L119.145 29.4348C118.385 29.4071 117.612 29.3932 116.812 29.3932C115.956 29.3932 115.088 29.4071 114.208 29.4348L112.213 29.5041V28.9218C112.845 28.9218 113.29 28.7832 113.548 28.5059C113.804 28.2251 113.931 27.6983 113.931 26.9184V18.1076C113.973 17.4693 113.846 16.8312 113.561 16.2601C113.318 15.8615 112.877 15.6605 112.213 15.6605V15.0782C112.867 15.1336 113.503 15.1614 114.116 15.1614C115.142 15.1614 116.093 15.1302 116.983 15.0643C117.872 14.9985 118.693 14.9014 119.449 14.7732V16.7731C119.927 16.0437 120.619 15.4848 121.427 15.1752C122.355 14.8351 123.337 14.6706 124.325 14.69" fill="white"/>
<path d="M138.458 10.5744V15.0804H141.462V15.6349H138.458V27.1702C138.434 27.442 138.51 27.7132 138.67 27.9327C138.765 28.0196 138.876 28.0854 138.998 28.126C139.119 28.1666 139.247 28.181 139.375 28.1684C139.649 28.1586 139.919 28.0975 140.172 27.9882C140.502 27.8511 140.796 27.6374 141.03 27.3643L141.492 27.7109C141.063 28.3797 140.475 28.929 139.782 29.3087C138.963 29.7339 138.05 29.9391 137.13 29.9049C136.515 29.9138 135.901 29.8345 135.307 29.6692C134.816 29.5442 134.359 29.3071 133.972 28.976C133.53 28.5799 133.229 28.0478 133.114 27.4613C132.976 26.686 132.914 25.8989 132.929 25.1113V15.6315H130.599V15.0769H132.929V11.7841C133.923 11.7938 134.915 11.695 135.888 11.4895C136.779 11.2951 137.641 10.9828 138.451 10.5605" fill="white"/>
<path d="M153.296 14.6889C153.896 14.6535 154.492 14.8034 155.007 15.1187C155.397 15.3823 155.698 15.761 155.869 16.2036C156.026 16.6162 156.108 17.0542 156.112 17.4964C156.128 17.8652 156.067 18.2334 155.931 18.576C155.795 18.9186 155.588 19.2277 155.325 19.4825C154.762 19.9917 154.025 20.2568 153.272 20.2208C152.373 20.2208 151.695 20.0348 151.236 19.6628C151.017 19.4941 150.841 19.275 150.722 19.0237C150.603 18.7724 150.545 18.496 150.552 18.2174C150.53 17.6635 150.686 17.1172 150.997 16.6611C151.299 16.2436 151.679 15.8903 152.116 15.6213C151.778 15.6152 151.444 15.6814 151.134 15.8154C150.802 15.9504 150.496 16.1441 150.23 16.3873C149.959 16.6304 149.735 16.9232 149.57 17.2504C149.406 17.5717 149.322 17.9285 149.324 18.2902V26.64C149.324 27.532 149.529 28.1351 149.94 28.4494C150.35 28.7636 151.024 28.9208 151.962 28.9208V29.5031L149.861 29.4337C148.93 29.406 147.975 29.3921 146.994 29.3921C146.082 29.3921 145.151 29.406 144.202 29.4337L142.088 29.5031V28.9208C142.72 28.9208 143.164 28.7821 143.422 28.5048C143.679 28.2241 143.805 27.6972 143.805 26.9173V18.1065C143.848 17.4682 143.72 16.8301 143.436 16.259C143.193 15.8604 142.752 15.6594 142.088 15.6594V15.0771C142.741 15.1326 143.374 15.1603 143.99 15.1603C145.016 15.1603 145.968 15.1291 146.857 15.0632C147.747 14.9974 148.568 14.9003 149.324 14.7721V16.772C149.576 16.317 149.916 15.9175 150.323 15.597C150.721 15.2831 151.173 15.048 151.657 14.9038C152.19 14.7508 152.742 14.6761 153.296 14.682" fill="white"/>
<path d="M160.843 29.6974C159.45 29.6974 158.443 29.36 157.822 28.6853C157.218 28.0592 156.882 27.2176 156.885 26.3422C156.854 25.6452 157.06 24.9587 157.47 24.3977C157.878 23.8795 158.396 23.4612 158.986 23.1742C159.622 22.8542 160.283 22.5887 160.963 22.3804C161.647 22.1702 162.306 21.9622 162.94 21.7565C163.477 21.6002 163.988 21.3668 164.46 21.0633C164.636 20.9551 164.783 20.8026 164.885 20.6205C164.986 20.4384 165.04 20.2328 165.041 20.0235V17.5244C165.036 17.1929 164.979 16.8642 164.873 16.5504C164.755 16.1904 164.538 15.8719 164.247 15.6319C163.841 15.3432 163.347 15.2082 162.852 15.2506C162.536 15.2489 162.222 15.2909 161.918 15.3754C161.641 15.4507 161.377 15.5675 161.134 15.722C161.743 15.8953 162.288 16.2489 162.698 16.7376C163.016 17.1428 163.19 17.6444 163.194 18.1622C163.206 18.5033 163.133 18.842 162.983 19.1476C162.833 19.4533 162.61 19.7162 162.335 19.9126C161.747 20.3456 161.036 20.5709 160.31 20.5538C159.963 20.5758 159.615 20.5256 159.288 20.4064C158.961 20.2872 158.661 20.1014 158.407 19.8606C158.183 19.634 158.007 19.3635 157.889 19.0655C157.771 18.7675 157.715 18.4483 157.723 18.1275C157.708 17.5996 157.876 17.0831 158.199 16.6683C158.596 16.2084 159.082 15.8347 159.625 15.5695C160.321 15.2236 161.065 14.9897 161.832 14.8763C162.725 14.735 163.628 14.6655 164.531 14.6683C165.468 14.6615 166.404 14.7497 167.323 14.9318C168.148 15.0907 168.913 15.481 169.53 16.0583C169.97 16.4682 170.268 17.0118 170.378 17.6076C170.516 18.3876 170.577 19.1793 170.563 19.9715V27.4202C170.544 27.7394 170.58 28.0596 170.669 28.3664C170.699 28.4438 170.752 28.5096 170.821 28.5544C170.889 28.5993 170.971 28.6208 171.052 28.616C171.22 28.6136 171.384 28.5657 171.528 28.4773C171.682 28.3837 171.829 28.2902 171.973 28.1966L172.28 28.6714C171.783 29.0493 171.213 29.3184 170.607 29.4617C169.92 29.6309 169.214 29.7147 168.507 29.7113C167.179 29.7113 166.293 29.4998 165.855 29.0735C165.438 28.6941 165.179 28.1669 165.134 27.6004C164.706 28.2291 164.139 28.7478 163.478 29.1151C162.665 29.541 161.757 29.7464 160.843 29.7113V29.6974ZM163.922 27.4895C164.125 27.4937 164.327 27.4608 164.518 27.3924C164.721 27.3077 164.904 27.1801 165.055 27.0181V21.143C164.852 21.4788 164.593 21.7756 164.288 22.02C163.984 22.2695 163.679 22.5399 163.385 22.8276C163.078 23.1249 162.829 23.4776 162.65 23.8674C162.438 24.3732 162.339 24.9198 162.359 25.4687C162.359 26.207 162.506 26.7269 162.804 27.025C162.949 27.1714 163.121 27.2867 163.311 27.3641C163.501 27.4415 163.704 27.4794 163.909 27.4756L163.922 27.4895Z" fill="white"/>
<path d="M180.299 7.76758V26.9213C180.299 27.6977 180.426 28.2246 180.683 28.5053C180.939 28.7861 181.367 28.9213 182.017 28.9213V29.5036L180.176 29.4342C179.36 29.4065 178.521 29.3927 177.662 29.3927C176.802 29.3927 175.933 29.4065 175.055 29.4342L173.063 29.5036V28.9213C173.695 28.9213 174.14 28.7826 174.398 28.5053C174.651 28.2246 174.781 27.6977 174.781 26.9213V11.0916C174.824 10.4533 174.696 9.81513 174.411 9.24414C174.169 8.84554 173.727 8.6445 173.063 8.6445V8.0726C173.716 8.12805 174.349 8.15578 174.962 8.15578C175.986 8.15578 176.943 8.12343 177.833 8.05873C178.719 7.99288 179.543 7.89582 180.299 7.76758Z" fill="white"/>
<path d="M75.3154 33.5527C75.9107 33.5735 76.6839 33.5909 77.6624 33.6117C78.6409 33.6325 79.6091 33.6359 80.591 33.6359C81.5729 33.6359 82.5958 33.6359 83.5367 33.6117C84.4775 33.5874 85.1378 33.5805 85.5279 33.5805C88.3287 33.5805 90.4145 33.9883 91.7853 34.804C93.1561 35.6197 93.8403 36.6676 93.8381 37.9478C93.8053 38.6855 93.5362 39.3924 93.0717 39.9616C92.4469 40.7485 91.649 41.3764 90.7418 41.7951C89.485 42.3847 88.1361 42.7472 86.7561 42.8662V42.9216C88.859 43.0141 90.5457 43.311 91.8161 43.8124C93.0865 44.3139 94.0057 44.9204 94.5736 45.6321C95.1066 46.2447 95.4105 47.0273 95.4324 47.8435C95.4661 48.6932 95.2513 49.5341 94.8148 50.2606C94.3784 50.987 93.7398 51.5666 92.9793 51.9266C91.344 52.8 89.0951 53.2368 86.2326 53.2368C85.7423 53.2368 85.0215 53.2229 84.0704 53.1952C83.1227 53.164 81.98 53.1501 80.6492 53.1501C79.6228 53.1501 78.6306 53.1501 77.659 53.1501C76.6874 53.1501 75.9073 53.1848 75.312 53.2229V52.6857C75.7907 52.6759 76.2659 52.6013 76.725 52.4638C76.8734 52.4117 77.0068 52.3235 77.1136 52.2068C77.2204 52.0902 77.2973 51.9487 77.3374 51.7949C77.4579 51.3056 77.5097 50.8015 77.4913 50.2975V36.5024C77.5112 35.9915 77.4594 35.4804 77.3374 34.9842C77.293 34.8303 77.2131 34.6894 77.1042 34.5731C76.9953 34.4567 76.8606 34.3683 76.7113 34.3153C76.2597 34.1722 75.7886 34.102 75.3154 34.1073V33.5527ZM85.3739 34.1108C84.6896 34.1108 84.2278 34.2668 84.0259 34.5822C83.8241 34.8976 83.718 35.5388 83.718 36.5024V50.2906C83.718 51.2542 83.848 51.8781 84.1012 52.1658C84.3544 52.4534 84.8949 52.5956 85.7126 52.5956C86.8553 52.5956 87.6901 52.1761 88.2101 51.3304C88.7301 50.4847 88.9936 49.2889 88.9936 47.7326C88.9936 46.3046 88.6207 45.2012 87.8748 44.4225C87.129 43.6437 85.8916 43.2544 84.1628 43.2544H81.9253V42.783H84.5596C85.2302 42.8276 85.8912 42.6035 86.4003 42.1591C86.8505 41.7028 87.1596 41.1234 87.2898 40.4919C87.4583 39.7579 87.5409 39.0064 87.5361 38.2528C87.5361 36.8802 87.3719 35.8473 87.0435 35.1541C86.9044 34.8277 86.6696 34.5525 86.371 34.3659C86.0723 34.1793 85.7242 34.0902 85.3739 34.1108Z" fill="white"/>
<path d="M104.878 38.418C106.678 38.418 108.093 38.8951 109.124 39.8495C110.155 40.8038 110.671 42.4017 110.674 44.6431H101.074L101.016 44.1163H106.195C106.219 43.2756 106.179 42.4344 106.076 41.5999C106.007 40.9619 105.841 40.3386 105.583 39.7524C105.515 39.5572 105.391 39.3869 105.227 39.2634C105.063 39.1399 104.867 39.0688 104.663 39.0592C104.112 39.0592 103.66 39.4543 103.315 40.2411C102.969 41.028 102.74 42.3763 102.63 44.2861L102.75 44.5079C102.73 44.6932 102.719 44.8795 102.719 45.066V45.6483C102.671 46.6862 102.855 47.7217 103.256 48.6777C103.538 49.3162 104.019 49.8434 104.625 50.1785C105.13 50.4495 105.692 50.5933 106.264 50.5979C106.826 50.5708 107.382 50.473 107.92 50.3067C108.604 50.1092 109.288 49.5858 109.972 48.7331L110.492 48.8995C110.218 49.6956 109.819 50.4421 109.312 51.1109C108.75 51.8608 108.033 52.4771 107.211 52.9167C106.245 53.4164 105.169 53.6608 104.084 53.6273C102.857 53.6436 101.64 53.3968 100.513 52.9029C99.4255 52.4093 98.5262 51.5711 97.9501 50.5147C97.3161 49.4032 96.999 47.9105 96.999 46.0365C96.999 44.2595 97.3469 42.8095 98.0425 41.6865C98.7147 40.5861 99.7049 39.722 100.879 39.2117C102.145 38.671 103.508 38.4019 104.882 38.4214" fill="white"/>
<path d="M119.199 34.3145V38.8204H122.203V39.3784H119.199V50.9137C119.175 51.1868 119.25 51.4595 119.412 51.6797C119.507 51.7658 119.618 51.8312 119.74 51.8718C119.861 51.9123 119.989 51.9272 120.116 51.9154C120.391 51.9038 120.66 51.8428 120.913 51.7351C121.245 51.5979 121.539 51.3829 121.772 51.1078L122.234 51.4544C121.803 52.1225 121.216 52.6716 120.523 53.0522C119.705 53.4786 118.792 53.685 117.872 53.6519C117.256 53.6591 116.643 53.5798 116.048 53.4162C115.556 53.2844 115.1 53.0415 114.714 52.7056C114.27 52.3111 113.968 51.7783 113.855 51.1909C113.718 50.4157 113.656 49.6285 113.671 48.8409V39.3646H111.341V38.8204H113.671V35.5276C114.665 35.5367 115.657 35.4391 116.63 35.2364C117.523 35.0448 118.387 34.7348 119.199 34.3145Z" fill="white"/>
<path d="M130.849 38.418C132.269 38.3908 133.681 38.6451 135.006 39.1667C136.156 39.6389 137.119 40.4851 137.743 41.5722C138.4 42.6836 138.727 44.1752 138.725 46.0469C138.722 47.9186 138.395 49.4113 137.743 50.5251C137.12 51.609 136.156 52.4499 135.006 52.9133C132.324 53.8791 129.395 53.8791 126.713 52.9133C125.553 52.4548 124.58 51.6133 123.952 50.5251C123.295 49.4137 122.967 47.9209 122.97 46.0469C122.972 44.1729 123.299 42.6813 123.952 41.5722C124.581 40.4808 125.553 39.6341 126.713 39.1667C128.031 38.6526 129.436 38.403 130.849 38.4319V38.418ZM130.849 38.9864C130.238 38.9864 129.727 39.5433 129.316 40.6571C128.906 41.7709 128.701 43.5675 128.704 46.0469C128.704 48.531 128.908 50.3241 129.316 51.4263C129.727 52.5285 130.236 53.0831 130.849 53.0831C131.461 53.0831 131.974 52.5285 132.385 51.4263C132.796 50.3241 132.997 48.5321 132.997 46.0469C132.997 43.5617 132.792 41.7663 132.385 40.6571C131.978 39.5479 131.465 38.9726 130.849 38.9726V38.9864Z" fill="white"/>
<path d="M152.44 38.4184C153.193 38.3903 153.945 38.4983 154.661 38.7373C155.129 38.9032 155.553 39.1746 155.903 39.531C156.239 39.9095 156.475 40.3688 156.587 40.8655C156.749 41.6035 156.822 42.359 156.802 43.115V50.6503C156.802 51.4267 156.932 51.957 157.186 52.2343C157.439 52.5116 157.87 52.6503 158.52 52.6503V53.236C158.113 53.2152 157.493 53.191 156.666 53.1667C155.838 53.1425 155.023 53.1217 154.226 53.1217C153.367 53.1217 152.516 53.139 151.712 53.1667C150.908 53.1944 150.282 53.2152 149.871 53.236V52.6503C150.075 52.6746 150.281 52.6496 150.473 52.5773C150.665 52.505 150.838 52.3874 150.976 52.2343C151.181 51.957 151.284 51.4267 151.284 50.6503V41.6142C151.293 41.2837 151.241 40.9544 151.13 40.6437C151.041 40.4 150.873 40.1937 150.654 40.0579C150.386 39.9161 150.085 39.8491 149.782 39.8638C149.222 39.8576 148.678 40.0556 148.249 40.4218C148.031 40.5904 147.855 40.8089 147.736 41.0595C147.617 41.3101 147.559 41.5857 147.565 41.8637V50.6503C147.565 51.4267 147.675 51.957 147.89 52.2343C148.027 52.3847 148.197 52.5006 148.385 52.5728C148.574 52.645 148.777 52.6715 148.978 52.6503V53.236C148.588 53.2152 148.017 53.191 147.267 53.1667C146.518 53.1425 145.735 53.1217 144.938 53.1217C144.079 53.1217 143.21 53.139 142.331 53.1667C141.451 53.1944 140.784 53.2152 140.336 53.236V52.6503C140.968 52.6503 141.412 52.5116 141.67 52.2343C141.927 51.957 142.053 51.4267 142.053 50.6503V41.836C142.096 41.1978 141.968 40.5597 141.684 39.9886C141.441 39.59 141 39.3924 140.336 39.3924V38.8205C140.989 38.8759 141.626 38.9037 142.238 38.9037C143.26 38.9037 144.216 38.8713 145.105 38.8066C145.932 38.7516 146.755 38.6545 147.572 38.5155V40.5154C148.051 39.7878 148.742 39.2293 149.549 38.9175C150.479 38.5771 151.462 38.4126 152.451 38.4323" fill="white"/>
<path d="M19.7031 43.4551H18.167V47.9298H19.8776V43.8121L19.6929 43.6007L19.7031 43.4551Z" fill="white"/>
<path d="M19.8674 48.3906H18.167V50.4668H19.8674V48.3906Z" fill="white"/>
<path d="M20.9244 47.5317V45.0153L20.3667 44.3672V47.9165H20.9244V47.5317Z" fill="white"/>
<path d="M0 0V27.2887C2.57537 22.4444 6.23023 18.2752 10.6743 15.1122C14.0776 12.7437 17.8812 11.0284 21.896 10.0517C26.0937 9.0573 30.415 8.70679 34.7154 9.01189C41.0844 9.47723 47.2746 11.3551 52.848 14.5126C53.8537 14.0069 54.7342 13.2783 55.4242 12.381C56.4271 11.0688 56.9873 9.46487 57.0219 7.80568C57.1964 15.1122 57.364 21.1502 57.5488 28.4568C57.6006 29.1526 57.4146 29.8453 57.0219 30.4186C56.7477 30.8048 56.3849 31.1177 55.9647 31.3302C55.4842 29.1939 54.7872 27.1136 53.8846 25.1224C52.7146 22.5505 50.7508 18.2248 46.5255 14.9944C40.7094 10.5439 34.0517 10.8351 32.0844 10.946C23.764 11.4174 18.3789 16.2699 16.6888 17.9649C11.6322 23.0081 10.3219 28.8692 9.1792 34.3838C6.60643 46.7717 8.79602 57.7489 11.1088 65H18.5568C18.8784 64.792 19.1898 64.6187 19.46 64.4801H19.8022V63.5304H19.4327V61.215H17.9V63.1872V64.695H17.3218V63.5304H16.8223V51.4371H15.1116V50.4666H15.4982V43.4546H15.3717V42.9798H19.7782L20.0143 41.472L22.221 41.6973L22.4434 42.3316L24.2669 42.2415C24.3182 41.6352 24.4673 41.0416 24.7082 40.4842C24.9929 39.8283 25.385 39.2259 25.868 38.7026L23.7674 36.0718L27.37 35.2954L31.1333 35.5658L38.7559 32.7062L46.3202 32.4809L64.1107 34.5918L64.1791 34.6195V0H0Z" fill="white"/>
<path d="M20.9244 48.3906H20.3667V50.4668H20.9244V48.3906Z" fill="white"/>
<path d="M45.9336 59.8318L44.8114 59.759L29.6074 54.1543C29.7819 54.3865 29.9701 54.6188 30.1753 54.8475C31.2159 56.0362 32.4269 57.0597 33.7677 57.8838L42.9366 61.1073L47.0763 64.0604V64.9859H55.0991L51.3871 63.5371L61.5721 63.6896L61.6029 63.6514C61.7158 63.2251 61.8253 62.8022 61.945 62.3794C62.2393 62.3413 63.5564 62.3031 64.1688 62.265V61.0068L60.296 60.7364L45.9336 59.8318Z" fill="white"/>
<path d="M46.0091 33.2228L41.103 33.3927L54.7127 35.3545L55.3696 35.507L63.9775 39.6144L64.1485 39.6976V35.8294L63.6661 35.6353L45.9988 33.209" fill="white"/>
<path d="M42.0504 52.0988C41.8586 50.7212 41.8172 49.3263 41.9272 47.9395C41.9478 47.8771 41.9717 47.8147 41.9957 47.7523L26.4461 43.7871C26.3518 44.3248 26.306 44.8701 26.3092 45.4162C26.3424 47.3856 26.9586 49.2995 28.078 50.91L42.9023 55.6863C42.5077 54.5202 42.2225 53.3191 42.0504 52.0988Z" fill="white"/>
<path d="M17.3834 47.6907V47.3163V46.8588V46.4498V46.1274V45.7843V43.4551H16.292V47.9298H17.3834V47.6907Z" fill="white"/>
<path d="M23.6408 62.043H20.3462V63.3428V64.5178L25.1359 64.6322C24.3528 63.9738 23.8235 63.0572 23.6408 62.043Z" fill="white"/>
<path d="M17.3834 48.3906H16.292V50.4668H17.3834V48.3906Z" fill="white"/>
<path d="M23.8256 52.2726L24.4175 52.2414H24.3764C24.3764 51.978 24.3764 51.7146 24.3525 51.4512H20.3462V61.4266H23.6066C23.6549 60.527 24.0049 59.671 24.5988 59.0004L27.8832 58.9033L23.7777 55.6868L23.8256 52.2726Z" fill="white"/>
<path d="M22.1834 46.4452L21.3589 45.5059V47.9321H23.0421V47.44L22.9874 47.3776L22.5324 46.8611L22.1902 46.4521" fill="white"/>
<path d="M63.2723 42.1905L50.7197 37.7227C49.5876 38.4543 48.5418 39.3149 47.603 40.2876C46.6181 41.304 45.7776 42.4542 45.1055 43.7052L61.0656 48.1799L63.2723 42.1905Z" fill="white"/>
<path d="M31.6945 36.6126C30.3018 37.5342 29.051 38.659 27.9824 39.9505L43.6415 43.3265C45.0734 40.8826 47.1115 38.8608 49.5534 37.4618L34.6436 35.0078C33.6161 35.4571 32.6294 35.9964 31.6945 36.6196" fill="white"/>
<path d="M43.71 48.2213C43.5361 48.9359 43.4217 49.664 43.3679 50.398C43.2439 52.2945 43.5119 54.1963 44.1548 55.9819C43.8674 55.9264 54.5485 57.2678 59.978 57.9299L60.0601 51.93L60.1217 51.7948L43.6997 48.1797V48.2213" fill="white"/>
<path d="M21.3589 50.4668H24.3251L24.2909 49.4547L23.0182 48.9799V48.3906H21.3418L21.3589 50.4668Z" fill="white"/>
</svg>
